TexturaLiberaCond-Light.sfdir
StartChar: parenleft
Encoding: 40 40 8
Width: 200
Flags: W
HStem: -177 21G<133 164>
VStem: 13 54<87.3832 462.617>
LayerCount: 2
Back
SplineSet
160 700 m 17
 160 700 40 575 40 275 c 0
 40 -25 160 -150 160 -150 c 1033
EndSplineSet
Fore
SplineSet
176 727 m 1
 187 716 l 1
 187 716 67 591 67 291 c 0
 67 -9 187 -134 187 -134 c 1
 144 -177 l 1
 133 -166 l 1
 133 -166 13 -41 13 259 c 0
 13 559 133 684 133 684 c 1
 176 727 l 1
EndSplineSet
EndChar
StartChar: hyphen
Encoding: 45 45 13
Width: 240
Flags: W
HStem: 173 79
VStem: 53 134
LayerCount: 2
Back
SplineSet
80 200 m 25
 160 225 l 1049
EndSplineSet
Fore
SplineSet
53 184 m 1
 96 227 l 1
 176 252 l 1
 187 241 l 1
 144 198 l 1
 64 173 l 1
 53 184 l 1
EndSplineSet
EndChar
StartChar: zero
Encoding: 48 48 16
Width: 320
Flags: W
HStem: 407 20G<156 216> 407 20G<156 216>
VStem: 53 54<61 304> 213 54<96 339>
LayerCount: 2
Back
SplineSet
160 400 m 1
 80 320 l 1
 80 40 l 25
 160 0 l 1
 240 80 l 1
 240 360 l 25
 160 400 l 1
EndSplineSet
Fore
SplineSet
144 373 m 1x30
 107 336 l 1
 107 61 l 1
 176 27 l 2
 176 27 209 60 213 64 c 2
 213 339 l 1
 144 373 l 1x30
53 304 m 1
 176 427 l 1xb0
 256 387 l 1
 267 376 l 1
 267 96 l 1
 144 -27 l 1
 64 13 l 1
 53 24 l 1
 53 304 l 1
EndSplineSet
Substitution2: "Subscript forms-1" zero.inferior
Substitution2: "Superscript forms-1" zero.superior
EndChar
StartChar: nine
Encoding: 57 57 25
Width: 320
Flags: W
HStem: -177 54<97.0729 154.116> 407 20G<156 196> 407 20G<156 196>
VStem: 53 54<96 304> 213 54<-144 42 64 304>
LayerCount: 2
Back
SplineSet
240 80 m 1
 160 0 l 1
 80 80 l 25
 80 320 l 25
 160 400 l 25
 240 320 l 1
 240 -160 l 9
 200 -200 l 17
 200 -200 157 -150 120 -150 c 27
 90 -150 60 -200 60 -200 c 1025
EndSplineSet
Fore
SplineSet
213 64 m 1x98
 213 304 l 1
 144 373 l 1
 107 336 l 1
 107 96 l 1
 176 27 l 1
 213 64 l 1x98
213 42 m 1
 144 -27 l 1
 53 64 l 1
 53 304 l 1
 176 427 l 1xd8
 267 336 l 1
 267 -144 l 1
 184 -227 l 1
 173 -216 l 1
 173 -216 172 -214 170 -212 c 0
 154 -197 128 -177 104 -177 c 0
 99 -177 93 -179 89 -181 c 0
 88 -183 87 -184 87 -184 c 1
 44 -227 l 1
 33 -216 l 2
 33 -216 42 -200 56 -186 c 2
 57 -185 l 2
 99 -143 l 2
 109 -133 123 -123 136 -123 c 0
 163 -123 192 -149 207 -164 c 0
 213 -170 l 1
 213 42 l 1
EndSplineSet
Substitution2: "Subscript forms-1" nine.inferior
Substitution2: "Superscript forms-1" nine.superior
EndChar
StartChar: colon
Encoding: 58 58 26
Width: 240
Flags: W
VStem: 83 74
LayerCount: 2
Back
SplineSet
110 340 m 25
 130 320 l 1049
110 20 m 25
 130 0 l 1049
EndSplineSet
Fore
SplineSet
83 4 m 1
 126 47 l 1
 157 16 l 1
 114 -27 l 1
 83 4 l 1
83 324 m 1
 126 367 l 1
 157 336 l 1
 114 293 l 1
 83 324 l 1
EndSplineSet
EndChar
StartChar: at
Encoding: 64 64 32
Width: 640
Flags: W
HStem: -177 54<244.171 401.322> 379 41<356.237 370> 432 20G<316 347 396 427> 573 54<277.021 426.98>
VStem: 53 54<75.2759 356.172> 213 54<70.3073 329> 373 54<61 87 109 382> 533 54<238.827 437.344>
LayerCount: 2
Back
SplineSet
520 -50 m 1
 520 -50 440 -150 320 -150 c 11
 146 -150 80 51 80 225 c 27
 80 408 177 600 360 600 c 27
 493 600 560 458 560 325 c 27
 560 216 460 65 460 65 c 26
 420 25 l 1
 400 45 l 1
 400 425 l 1
 400 425 382 393 360 393 c 0
 338 393 320 425 320 425 c 9
 240 345 l 1
 240 85 l 17
 300 25 l 1
 400 125 l 1049
EndSplineSet
Fore
SplineSet
373 382 m 1
 370 379 l 2
 369 379 l 0
 362 372 353 366 344 366 c 0
 334 366 326 372 319 379 c 2
 308 390 l 1
 308 391 l 2
 307 391 l 0
 305 393 303 395 302 396 c 2
 267 361 l 1
 267 101 l 2
 267 74 302 66 316 52 c 1
 373 109 l 1
 373 382 l 1
373 87 m 1
 284 -2 l 1
 213 69 l 1
 213 329 l 1
 336 452 l 1
 347 441 l 2
 347 441 350 435 356 428 c 0
 361 424 369 420 376 420 c 0
 380 420 382 420 386 422 c 2
 416 452 l 1
 427 441 l 1
 427 61 l 1
 435 52 l 1
 449 73 533 209 533 309 c 0
 533 390 508 475 459 528 c 0
 429 556 390 573 344 573 c 0
 286 573 237 553 196 521 c 1
 137 448 107 344 107 241 c 0
 107 127 135 1 203 -72 c 0
 237 -104 282 -123 336 -123 c 0
 411 -123 470 -85 504 -55 c 2
 536 -23 l 1
 547 -34 l 1
 547 -34 542 -41 533 -50 c 2
 490 -92 l 1
 490 -93 l 2
 461 -122 394 -177 304 -177 c 0
 247 -177 201 -155 166 -120 c 2
 155 -109 l 1
 155 -108 l 2
 83 -36 53 92 53 209 c 0
 53 323 91 441 163 513 c 2
 206 555 l 2
 250 599 307 627 376 627 c 0
 425 627 465 608 496 577 c 2
 507 565 l 2
 560 512 587 425 587 341 c 0
 587 232 487 81 487 81 c 1
 404 -2 l 1
 373 29 l 1
 373 87 l 1
EndSplineSet
EndChar
StartChar: X
Encoding: 88 88 56
Width: 480
Flags: W
HStem: 273 54<298.56 352.014> 298 54<127.986 189.388> 533 21G<33 64.5556 384.769 424> 607 20G<96 127 376 416>
AnchorPoint: "abvmark" 240 700 basechar 0
LayerCount: 2
Back
SplineSet
80 275 m 25
 80 275 125 325 160 325 c 27
 223 325 257 300 320 300 c 27
 355 300 400 350 400 350 c 1049
440 40 m 25
 400 0 l 17
 100 600 l 9
 60 560 l 1049
40 40 m 25
 80 0 l 17
 380 600 l 9
 420 560 l 1049
EndSplineSet
Fore
SplineSet
13 24 m 1xb0
 56 67 l 1
 81 41 l 1
 206 290 l 1
 188 294 168 298 144 298 c 0
 121 298 94 276 77 261 c 2
 64 248 l 1
 53 259 l 1
 53 259 55 262 59 266 c 2
 102 308 l 2
 116 322 149 352 176 352 c 0x70
 181 352 185 351 190 351 c 2
 81 569 l 1
 44 533 l 1
 33 544 l 1
 116 627 l 1
 127 616 l 1
 248 374 l 1
 353 584 l 1
 396 627 l 1
 447 576 l 1
 404 533 l 1
 379 559 l 1
 267 336 l 1
 288 331 310 327 336 327 c 0
 359 327 387 349 403 364 c 2
 416 377 l 1
 427 366 l 2
 427 366 425 364 421 360 c 2
 421 359 l 2
 378 317 l 2
 364 303 331 273 304 273 c 0
 302 273 300 273 298 273 c 2
 419 31 l 1
 456 67 l 1
 467 56 l 1
 384 -27 l 1
 373 -16 l 1
 232 266 l 1
 107 16 l 1
 64 -27 l 1
 13 24 l 1xb0
EndSplineSet
EndChar
StartChar: a
Encoding: 97 97 65
Width: 320
Flags: W
HStem: 198 54<159.094 213> 407 20G<136 236> 407 20G<136 236>
VStem: 53 54<76 174> 213 54<27.1399 62 84 198 252 351>
AnchorPoint: "blwmark" 160 0 basechar 0
AnchorPoint: "abvmark" 180 500 basechar 0
LayerCount: 2
Back
SplineSet
100 280 m 17
 80 340 l 1
 140 400 l 1
 240 375 l 1
 240 20 l 1
 260 0 l 1
 300 40 l 1049
240 100 m 25
 140 0 l 1
 80 60 l 1
 80 190 l 1
 140 250 l 1
 140 250 155 225 200 225 c 3
 176.991563428 225 240 225 240 225 c 1033
EndSplineSet
Fore
SplineSet
184 198 m 2x98
 183 198 184 198 183 198 c 2
 184 198 l 2x98
84 253 m 1
 73 264 l 1
 53 324 l 1
 156 427 l 1xd8
 256 402 l 1
 267 391 l 1
 267 241 l 1
 267 116 l 1
 267 36 l 2
 267 32 273 30 276 27 c 2
 316 67 l 1
 327 56 l 1
 244 -27 l 1
 213 4 l 1
 213 62 l 1
 124 -27 l 1
 53 44 l 1
 53 174 l 1
 156 277 l 1
 167 266 l 2
 175 260 191 253 213 252 c 1
 213 351 l 1
 124 373 l 1
 107 356 l 1
 127 296 l 1
 84 253 l 1
213 198 m 1
 179 198 l 2
 151 199 136 210 129 217 c 0
 129 218 l 2
 124 223 l 1
 107 206 l 1
 107 76 l 1
 156 27 l 1
 213 84 l 1
 213 198 l 1
EndSplineSet
Substitution2: "Stylistic alternates-1" ascript
EndChar
StartChar: p
Encoding: 112 112 80
Width: 320
Flags: W
HStem: -177 21G<53 84> 407 20G<66 96 156 196> 407 20G<66 96 156 196>
VStem: 53 54<-134 -1 65 336 358 374> 213 54<96 336>
AnchorPoint: "abvmark" 160 500 basechar 0
LayerCount: 2
Back
SplineSet
40 0 m 1
 40 0 77 40 100 40 c 0
 123 40 160 0 160 0 c 9
 240 80 l 1
 240 320 l 25
 160 400 l 1
 80 320 l 1049
70 400 m 25
 90 380 l 1049
80 390 m 1
 80 -150 l 1025
EndSplineSet
Fore
SplineSet
43 384 m 1xd8
 86 427 l 1
 96 417 l 1
 107 406 l 1
 117 396 l 1
 107 386 l 1
 107 358 l 1
 176 427 l 1
 267 336 l 1
 267 96 l 1
 144 -27 l 1
 135 -18 l 2
 128 -11 118 -2 107 5 c 1
 107 -134 l 1
 64 -177 l 1
 53 -166 l 1
 53 -1 l 1
 46 -6 39 -13 34 -18 c 2
 24 -27 l 1
 13 -16 l 1
 13 -16 15 -14 18 -11 c 2
 53 25 l 1
 53 304 l 1
 53 374 l 1
 43 384 l 1xd8
107 336 m 1
 107 65 l 2
 110 66 113 67 116 67 c 0
 134 67 161 41 171 31 c 2
 176 27 l 1
 213 64 l 1
 213 304 l 2
 213 342 164 353 144 373 c 1
 107 336 l 1
EndSplineSet
EndChar
StartChar: q
Encoding: 113 113 81
Width: 320
Flags: W
HStem: -177 21G<213 244> 407 20G<156 187 235.31 267> 407 20G<156 187 235.31 267>
VStem: 53 54<96 304> 213 54<-134 42 64 358>
AnchorPoint: "abvmark" 180 500 basechar 0
LayerCount: 2
Back
SplineSet
240 80 m 9
 160 0 l 25
 80 80 l 25
 80 320 l 25
 160 400 l 1
 160 400 180 368 200 368 c 24
 220 368 240 400 240 400 c 9
 240 -150 l 1049
EndSplineSet
Fore
SplineSet
213 64 m 1x98
 213 358 l 1
 210 355 l 2
 203 348 193 341 184 341 c 0
 175 341 166 348 159 355 c 2
 148 366 l 2
 146 368 145 370 143 372 c 2
 107 336 l 1
 107 96 l 1
 176 27 l 1
 213 64 l 1x98
213 42 m 1
 144 -27 l 1
 53 64 l 1
 53 304 l 1
 176 427 l 1
 187 416 l 1
 187 416 191 410 196 404 c 0
 203 399 209 395 216 395 c 0
 220 395 223 397 226 398 c 2
 256 427 l 1xd8
 267 416 l 1
 267 -134 l 1
 224 -177 l 1
 213 -166 l 1
 213 42 l 1
EndSplineSet
EndChar
StartChar: y
Encoding: 121 121 89
Width: 320
Flags: W
HStem: -227 54<159.387 199.888> -177 54<77.1172 119.574> 407 20G<66 96 226 256> 407 20G<66 96 226 256>
VStem: 53 54<96 374> 213 54<-159.543 42 64 374>
AnchorPoint: "abvmark" 160 500 basechar 0
LayerCount: 2
Back
SplineSet
90 380 m 25
 70 400 l 1049
250 380 m 25
 230 400 l 1049
40 -200 m 17
 40 -200 70 -150 100 -150 c 8
 124 -150 155 -200 180 -200 c 24
 203 -200 240 -150 240 -150 c 1
 240 390 l 1025
240 80 m 9
 160 0 l 25
 80 80 l 1
 80 390 l 1049
EndSplineSet
Fore
SplineSet
24 -227 m 1x8c
 13 -216 l 1
 13 -216 23 -199 37 -185 c 2
 79 -143 l 2
 89 -133 103 -123 116 -123 c 0x4c
 140 -123 171 -173 196 -173 c 0
 201 -173 207 -170 212 -167 c 0
 213 -166 l 1
 213 42 l 1
 144 -27 l 1
 53 64 l 1
 53 374 l 1
 43 384 l 1
 86 427 l 1
 96 417 l 1
 107 406 l 1
 117 396 l 1
 107 386 l 1
 107 96 l 1
 176 27 l 1
 213 64 l 1
 213 374 l 1
 203 384 l 1
 246 427 l 1
 256 417 l 1
 261 411 l 1
 277 396 l 1
 267 386 l 1
 267 96 l 1
 267 -134 l 1
 267 -134 256 -149 243 -162 c 2
 201 -204 l 2
 189 -216 175 -227 164 -227 c 0xac
 139 -227 108 -177 84 -177 c 0x4c
 79 -177 74 -178 69 -181 c 0
 68 -183 67 -184 67 -184 c 1
 24 -227 l 1x8c
EndSplineSet
EndChar
StartChar: braceright
Encoding: 125 125 93
Width: 240
Flags: W
HStem: -177 21G<13 44>
VStem: 93 54<-54 204 370 630>
LayerCount: 2
Back
SplineSet
40 700 m 25
 120 650 l 1
 120 350 l 25
 200 300 l 25
 120 220 l 25
 120 -70 l 1
 40 -150 l 1049
EndSplineSet
Fore
SplineSet
13 684 m 1
 56 727 l 1
 136 677 l 1
 147 666 l 1
 147 370 l 1
 216 327 l 1
 227 316 l 1
 147 236 l 1
 147 -54 l 1
 24 -177 l 1
 13 -166 l 1
 93 -86 l 1
 93 204 l 1
 171 282 l 1
 104 323 l 1
 93 334 l 1
 93 630 l 1
 24 673 l 1
 13 684 l 1
EndSplineSet
EndChar
StartChar: cent
Encoding: 162 162 202
Width: 360
Flags: W
HStem: -177 21G<173 204> 607 20G<196 227>
VStem: 53 54<117 264> 173 54<-134 -17 62 345 419 584>
LayerCount: 2
Back
SplineSet
200 600 m 25
 200 -150 l 1049
320 320 m 9
 200 400 l 25
 80 280 l 25
 80 100 l 25
 200 0 l 25
 320 100 l 1041
EndSplineSet
Fore
SplineSet
347 336 m 1
 304 293 l 1
 227 345 l 1
 227 36 l 1
 336 127 l 1
 347 116 l 1
 304 73 l 1
 227 8 l 1
 227 -134 l 1
 184 -177 l 1
 173 -166 l 1
 173 -17 l 1
 64 73 l 1
 53 84 l 1
 53 264 l 1
 173 384 l 1
 173 584 l 1
 216 627 l 1
 227 616 l 1
 227 419 l 1
 336 347 l 1
 347 336 l 1
173 362 m 1
 153 342 112 301 107 296 c 1
 107 117 l 1
 173 62 l 1
 173 362 l 1
EndSplineSet
EndChar
StartChar: yen
Encoding: 165 165 204
Width: 520
Flags: W
HStem: -177 54<87.6642 265.027> -2 54<158.272 350.29> 523 21G<13 44> 573 54<77.8262 132.613> 573 36<79 114.391>
VStem: 133 54<291 566.806> 353 54<-104 -21.7064 33 232 254 556>
LayerCount: 2
Back
SplineSet
40 550 m 1
 40 550 67 600 99 600 c 3
 128 600 160 575 160 575 c 1
 160 275 l 1025
80 200 m 17
 80 200 110 250 140 250 c 3
 248 250 260 150 260 150 c 1
 380 270 l 1025
40 -200 m 17
 40 -200 53 -150 200 -150 c 3
 295 -150 300 -200 300 -200 c 9
 380 -120 l 1
 380 580 l 1025
360 600 m 25
 400 560 l 1049
120 -25 m 17
 120 -25 152 25 180 25 c 27
 274 25 326 0 420 0 c 27
 448 0 480 50 480 50 c 1033
EndSplineSet
Fore
SplineSet
104 -52 m 1xf6
 93 -41 l 1
 93 -41 103 -25 117 -11 c 2
 159 31 l 2
 160 32 l 0
 171 43 184 52 196 52 c 0
 259 52 302 40 353 33 c 1
 353 232 l 1
 244 123 l 1
 233 134 l 1
 233 134 229 168 205 196 c 0
 187 211 161 223 124 223 c 0
 119 223 114 222 109 219 c 0
 108 217 107 216 107 216 c 1
 64 173 l 1
 53 184 l 1
 53 184 63 201 77 215 c 2
 119 257 l 2
 123 261 128 266 133 269 c 1
 133 556 l 1
 122 563 101 573 83 573 c 0xf6
 78 573 75 572 70 570 c 0
 69 568 67 566 67 566 c 1
 24 523 l 1
 13 534 l 1
 13 534 23 552 37 566 c 2
 79 609 l 2
 80 609 l 0xee
 90 619 102 627 115 627 c 0
 144 627 176 602 176 602 c 1
 187 591 l 1
 187 291 l 1
 172 276 l 1
 204 273 227 259 242 244 c 2
 253 233 l 2
 269 217 278 197 282 184 c 1
 353 254 l 1
 353 564 l 1
 333 584 l 1
 376 627 l 1
 396 607 l 1
 407 596 l 1
 427 576 l 1
 407 556 l 1
 407 286 l 1
 407 28 l 1
 416 27 426 27 436 27 c 0
 441 27 446 29 451 31 c 0
 452 33 453 34 453 34 c 1
 496 77 l 1
 507 66 l 1
 507 66 497 50 483 36 c 2
 441 -6 l 2
 431 -16 419 -26 407 -27 c 1
 407 -104 l 1
 284 -227 l 1
 273 -216 l 1
 273 -216 272 -207 265 -197 c 0
 251 -186 226 -177 184 -177 c 0
 111 -177 72 -190 50 -202 c 1
 24 -227 l 1
 13 -216 l 1
 13 -216 15 -210 22 -203 c 2
 64 -160 l 2
 65 -160 l 0
 80 -145 119 -123 216 -123 c 0
 265 -123 289 -136 302 -149 c 2
 313 -160 l 2
 314 -161 l 2
 317 -164 319 -166 320 -168 c 2
 353 -136 l 1
 353 -24 l 1
 288 -18 239 -2 164 -2 c 0
 159 -2 155 -3 149 -6 c 0
 148 -7 147 -9 147 -9 c 1
 104 -52 l 1xf6
EndSplineSet
EndChar
StartChar: copyright
Encoding: 169 169 221
Width: 560
Flags: W
HStem: -20 40<203.085 377.527> 115 40<253.685 329.896> 410 20G<295 323> 418 40<360.141 377> 445 40<293.459 328.91> 580 40<182.473 356.915>
VStem: 20 40<187.977 436.004> 151 40<215.162 374.317> 242 12<174 392 426 448> 283 40<202 398> 500 40<163.996 412.023>
LayerCount: 2
Back
SplineSet
248 438 m 1
 248 190 l 1025
303 410 m 1
 303 190 l 1025
248 465 m 1
 248 465 171 399 171 300 c 3
 171 208 214 135 293 135 c 3
 345 135 402 218 403 218 c 1025
248 406 m 1
 248 406 290 465 316 465 c 3
 344 465 332 438 358 438 c 3
 379 438 390 465 391 465 c 1025
40 350 m 0
 40 475 140 600 240 600 c 0
 440 600 520 500 520 250 c 0
 520 125 420 0 320 0 c 0
 120 0 40 100 40 350 c 0
EndSplineSet
Fore
SplineSet
20 338 m 0xc7e0
 20 411 54 484 102 532 c 2
 134 564 l 2
 168 598 210 620 252 620 c 0
 342 620 407 600 452 555 c 2
 461 546 l 2
 516 491 540 399 540 262 c 0
 540 189 506 116 458 68 c 2
 426 36 l 2
 392 2 350 -20 308 -20 c 0
 218 -20 153 0 108 45 c 2
 99 54 l 2
 44 109 20 201 20 338 c 0xc7e0
60 362 m 0
 60 228 83 137 135 81 c 0
 179 39 245 20 332 20 c 0
 367 20 402 35 433 61 c 1
 472 108 500 173 500 238 c 0
 500 372 477 463 425 519 c 0
 381 561 315 580 228 580 c 0
 193 580 158 565 127 539 c 1
 88 492 60 427 60 362 c 0
236 386 m 1
 228 394 l 1
 228 394 234 402 242 412 c 1
 242 448 l 1
 220 420 191 372 191 312 c 0
 191 259 205 212 232 182 c 0
 235 179 239 176 242 174 c 2
 242 392 l 1
 236 386 l 1
268 477 m 1
 254 463 l 2
 253 462 253 461 252 460 c 2
 254 460 l 1
 254 426 l 2
 255 427 257 428 258 429 c 2
 289 461 l 2
 290 462 l 0
 303 475 317 485 328 485 c 0xcfe0
 336 485 341 483 344 480 c 2
 352 471 l 2
 353 471 l 2
 356 468 358 464 360 460 c 0
 363 459 366 458 370 458 c 0xd7e0
 372 458 375 459 377 459 c 2
 403 485 l 2xcfe0
 411 477 l 2
 410 475 406 466 399 459 c 2
 367 428 l 2
 362 423 355 418 346 418 c 0xd7e0
 339 418 335 420 332 423 c 0
 323 432 l 2
 320 435 318 439 316 443 c 0
 313 444 309 445 304 445 c 0xcfe0
 297 445 289 441 281 435 c 0
 273 426 268 418 268 418 c 1xd7e0
 254 404 l 1
 254 168 l 1
 253 168 l 1
 268 160 286 155 305 155 c 0
 325 155 347 169 364 183 c 0
 376 197 382 205 383 206 c 2
 415 238 l 2
 423 230 l 1
 420 227 407 208 388 189 c 2
 356 157 l 2
 335 136 307 115 281 115 c 0
 250 115 225 126 205 146 c 2
 196 154 l 2
 166 184 151 232 151 288 c 0
 151 369 202 428 221 447 c 2
 253 479 l 2
 257 483 260 485 260 485 c 1xcfe0
 268 477 l 1
315 430 m 1xe7e0
 323 422 l 1
 323 202 l 1
 291 170 l 1
 283 178 l 1
 283 398 l 1
 315 430 l 1xe7e0
EndSplineSet
EndChar
StartChar: registered
Encoding: 174 174 222
Width: 560
Flags: W
HStem: -20 40<203.085 377.527> 142 40<170.102 214.739> 445 40<168.07 211.608> 580 40<182.473 356.915>
VStem: 20 40<187.977 436.004> 215 12<182 432> 256 40<174 426> 354 40<174 302> 500 40<163.996 412.023>
LayerCount: 2
Back
SplineSet
154 438 m 1
 154 438 169 465 187 465 c 3
 203 465 211 451 221 451 c 3
 233 451 242 465 243 465 c 1025
221 438 m 1
 221 176 l 1025
330 314 m 1
 397 396 l 1
 298 465 l 1
 276 438 l 1
 276 162 l 1
 254 135 l 1
 254 135 241 162 198 162 c 3
 168 162 154 135 154 135 c 1033
353 341 m 1
 374 314 l 1
 374 162 l 1
 397 135 l 9
 418 162 l 1049
40 350 m 0
 40 475 140 600 240 600 c 0
 440 600 520 500 520 250 c 0
 520 125 420 0 320 0 c 0
 120 0 40 100 40 350 c 0
EndSplineSet
Fore
SplineSet
20 338 m 0
 20 411 54 484 102 532 c 2
 134 564 l 2
 168 598 210 620 252 620 c 0
 342 620 407 600 452 555 c 2
 461 546 l 2
 516 491 540 399 540 262 c 0
 540 189 506 116 458 68 c 2
 426 36 l 2
 392 2 350 -20 308 -20 c 0
 218 -20 153 0 108 45 c 2
 99 54 l 2
 44 109 20 201 20 338 c 0
60 362 m 0
 60 228 83 137 135 81 c 0
 179 39 245 20 332 20 c 0
 367 20 402 35 433 61 c 1
 472 108 500 173 500 238 c 0
 500 372 477 463 425 519 c 0
 381 561 315 580 228 580 c 0
 193 580 158 565 127 539 c 1
 88 492 60 427 60 362 c 0
318 294 m 1
 310 302 l 1
 376 383 l 1
 296 438 l 1
 296 174 l 1
 274 147 l 1
 242 115 l 1
 234 123 l 1
 234 123 233 125 231 128 c 0
 222 135 208 142 186 142 c 0
 177 142 168 139 163 136 c 2
 142 115 l 1
 134 123 l 2
 134 123 137 129 143 135 c 2
 143 136 l 2
 175 167 l 2
 182 174 194 182 210 182 c 0
 212 182 213 182 215 182 c 2
 215 432 l 2
 213 431 211 431 209 431 c 0
 199 431 191 445 175 445 c 0
 172 445 171 444 168 443 c 2
 142 418 l 1
 134 426 l 1
 134 426 138 435 146 443 c 2
 178 475 l 2
 184 481 191 485 199 485 c 0
 215 485 223 471 233 471 c 0
 238 471 243 475 246 477 c 2
 254 485 l 2
 255 485 l 2
 263 477 l 1
 261 475 l 2
 261 475 260 473 259 472 c 2
 258 471 l 2
 227 440 l 1
 227 181 l 1
 241 178 250 172 256 167 c 1
 256 426 l 1
 278 453 l 1
 310 485 l 1
 409 416 l 1
 417 408 l 1
 373 353 l 1
 394 326 l 1
 394 174 l 1
 407 159 l 1
 430 182 l 1
 438 174 l 1
 417 147 l 1
 385 115 l 1
 377 123 l 1
 354 150 l 1
 354 302 l 1
 342 318 l 1
 318 294 l 1
EndSplineSet
EndChar
StartChar: micro
Encoding: 181 181 209
Width: 320
Flags: W
HStem: -177 21G<53 84> 407 20G<66 96 226 256> 407 20G<66 96 226 256>
VStem: 53 54<-134 -6 52 374> 213 54<36 42 64 374>
LayerCount: 2
Back
SplineSet
80 390 m 1
 80 -150 l 1025
90 380 m 9
 70 400 l 1041
300 40 m 9
 260 0 l 1
 240 20 l 17
 240 390 l 1025
250 380 m 9
 230 400 l 1041
40 0 m 1
 40 0 48 25 100 25 c 3
 149 25 160 0 160 0 c 9
 240 80 l 1025
EndSplineSet
Fore
SplineSet
24 -27 m 1xd8
 13 -16 l 1
 13 -16 14 -12 19 -7 c 2
 53 27 l 1
 53 374 l 1
 43 384 l 1
 86 427 l 1
 96 417 l 1
 107 406 l 1
 117 396 l 1
 107 386 l 1
 107 52 l 2
 110 52 113 52 116 52 c 0
 147 52 163 41 170 34 c 2
 176 28 l 1
 213 64 l 1
 213 374 l 1
 203 384 l 1
 246 427 l 1
 256 417 l 1
 261 411 l 1
 277 396 l 1
 267 386 l 1
 267 96 l 1
 267 36 l 1
 276 27 l 1
 316 67 l 1
 327 56 l 1
 244 -27 l 1
 213 4 l 1
 213 42 l 1
 144 -27 l 1
 133 -16 l 1
 133 -16 133 -15 132 -14 c 0
 126 -10 119 -6 107 -4 c 1
 107 -134 l 1
 64 -177 l 1
 53 -166 l 1
 53 -6 l 1
 48 -7 43 -9 40 -11 c 2
 24 -27 l 1xd8
EndSplineSet
EndChar
StartChar: periodcentered
Encoding: 183 183 212
Width: 240
Flags: W
HStem: 283 74
VStem: 83 74
LayerCount: 2
Back
SplineSet
110 330 m 25
 130 310 l 1049
EndSplineSet
Fore
SplineSet
83 314 m 1
 126 357 l 1
 157 326 l 1
 114 283 l 1
 83 314 l 1
EndSplineSet
EndChar
StartChar: questiondown
Encoding: 191 191 201
Width: 320
Flags: W
HStem: 407 20G<146 186> 407 20G<146 186>
VStem: 53 54<-129 -46> 133 54<66 194> 213 54<-124 -66>
CounterMasks: 1 38
LayerCount: 2
Back
SplineSet
240 -50 m 25
 240 -140 l 25
 180 -200 l 25
 80 -150 l 25
 80 -30 l 25
 160 50 l 25
 160 210 l 1049
170 380 m 25
 150 400 l 1049
EndSplineSet
Fore
SplineSet
197 396 m 1xb8
 154 353 l 1
 123 384 l 1
 166 427 l 1
 197 396 l 1xb8
256 -23 m 1
 267 -34 l 1
 267 -124 l 1
 164 -227 l 1
 64 -177 l 1
 53 -166 l 1
 53 -46 l 1
 133 34 l 1
 133 194 l 1
 176 237 l 1
 187 226 l 1
 187 66 l 1
 107 -14 l 1
 107 -129 l 1
 196 -173 l 1
 213 -156 l 1
 213 -66 l 1
 256 -23 l 1
EndSplineSet
EndChar
StartChar: Thorn
Encoding: 222 222 178
Width: 560
Flags: W
HStem: -177 54<18.4187 118.519> 407 20G<296 344.8> 407 20G<296 344.8> 523 21G<13 44> 573 54<77.8262 132.32> 573 36<79 114.391>
VStem: 152 16<-146 549> 233 54<-84 64 126 371 398 544> 453 54<146 256>
AnchorPoint: "abvmark" 320 700 basechar 0
LayerCount: 2
Back
SplineSet
200 50 m 17
 200 50 243 100 280 100 c 27
 331 100 400 50 400 50 c 1
 480 130 l 1
 480 275 l 1
 300 400 l 1
 260 360 l 1025
40 550 m 1
 40 550 67 600 99 600 c 3
 128 600 142 575 160 575 c 3
 182 575 200 600 201 600 c 1025
160 550 m 1
 160 -125 l 1025
300 600 m 1
 260 560 l 1
 260 -100 l 1
 160 -200 l 1
 160 -200 138 -150 60 -150 c 3
 5 -150 -20 -200 -18 -200 c 1033
EndSplineSet
Fore
SplineSet
316 627 m 1x9b80
 327 616 l 1
 287 576 l 1
 287 398 l 1
 316 427 l 1
 496 302 l 1
 507 291 l 1
 507 146 l 1
 384 23 l 1
 384 23 334 60 287 70 c 1
 287 -84 l 1
 144 -227 l 1
 133 -216 l 1
 133 -216 130 -210 124 -203 c 0
 109 -190 84 -177 44 -177 c 0
 30 -177 18 -180 9 -184 c 2
 -34 -227 l 1
 -45 -216 l 2
 -46 -215 -41 -204 -29 -192 c 2
 -28 -191 l 2
 14 -149 l 2
 27 -136 48 -123 76 -123 c 0
 113 -123 136 -134 152 -146 c 1
 152 549 l 2
 150 548 147 548 144 548 c 0
 126 548 112 573 83 573 c 0xdb80
 78 573 75 572 70 570 c 0
 69 568 67 566 67 566 c 1
 24 523 l 1
 13 534 l 1
 13 534 23 552 37 566 c 2
 79 609 l 2
 80 609 l 0x9780
 90 619 102 627 115 627 c 0
 144 627 158 602 176 602 c 0
 187 602 197 608 204 614 c 2
 216 626 l 2
 217 627 l 2x9b80
 228 616 l 1
 226 614 l 2
 225 613 223 611 221 609 c 2x9780
 221 608 l 2
 178 566 l 2
 175 563 172 560 168 557 c 1
 168 -155 l 1
 162 -155 l 1
 173 -166 l 2
 175 -168 177 -169 178 -171 c 2
 233 -116 l 1
 233 64 l 1
 222 58 211 50 203 42 c 2
 184 23 l 1
 173 34 l 1
 173 34 176 38 182 44 c 2
 224 86 l 2
 226 88 230 92 233 95 c 2
 233 344 l 1
 233 544 l 1
 316 627 l 1x9b80
287 371 m 1
 287 126 l 2
 290 127 293 127 296 127 c 0
 347 127 416 77 416 77 c 2
 416 77 449 110 453 114 c 2
 453 256 l 1
 287 371 l 1
EndSplineSet
EndChar
StartChar: germandbls
Encoding: 223 223 131
Width: 400
Flags: W
HStem: -227 54<19.2066 62.9271> -177 54<-62.8828 -19.1811> 333 54<166.602 255.708> 407 20G<127 183 276 316> 407 20G<127 183 276 316> 583 54<212.127 267.076>
VStem: 73 54<-162.682 -75 -5.94327 359 418 554> 293 54<-158.554 83>
AnchorPoint: "abvmark" 240 750 basechar 0
LayerCount: 2
Back
SplineSet
120 400 m 1
 120 400 179 360 214 360 c 3
 273 360 280 400 280 400 c 1
 320 360 l 1
 200 200 l 1
 320 100 l 1
 320 -150 l 1
 320 -150 282 -200 260 -200 c 1
 207 -113 100 0 100 0 c 1025
-100 -200 m 17
 -100 -200 -70 -150 -40 -150 c 8
 -3 -150 3 -200 40 -200 c 24
 70 -200 100 -150 100 -150 c 1
 100 570 l 1
 180 650 l 17
 180 650 212 610 240 610 c 24
 268 610 300 650 301 650 c 1033
EndSplineSet
Fore
SplineSet
-116 -227 m 1xa7
 -127 -216 l 1
 -127 -216 -117 -199 -103 -185 c 2
 -61 -143 l 2
 -51 -133 -37 -123 -24 -123 c 0x67
 -11 -123 -2 -129 6 -137 c 2
 17 -149 l 2
 22 -154 27 -159 31 -164 c 0
 38 -170 46 -173 56 -173 c 0
 61 -173 67 -171 71 -169 c 0
 72 -167 73 -166 73 -166 c 1
 73 -16 l 1
 73 554 l 1
 196 677 l 1
 207 666 l 1
 207 666 209 663 212 659 c 0
 224 648 241 637 256 637 c 0
 271 637 286 649 298 659 c 2
 316 676 l 2
 316 677 l 0
 317 677 l 2
 328 666 l 1
 326 663 l 2
 324 661 321 658 318 655 c 2
 276 613 l 2
 264 601 243 583 224 583 c 0
 206 583 188 599 176 611 c 0
 164 623 l 1
 127 586 l 1
 127 418 l 1
 136 427 l 1
 136 427 195 387 230 387 c 0
 242 387 252 388 260 391 c 2
 296 427 l 1
 347 376 l 1
 228 217 l 1
 336 127 l 1
 347 116 l 1
 347 -134 l 1
 347 -134 336 -148 323 -161 c 2
 281 -204 l 2
 269 -216 254 -227 244 -227 c 1
 233 -216 l 1
 205 -170 162 -115 127 -75 c 1
 127 -134 l 2
 127 -134 118 -150 104 -164 c 2
 103 -165 l 2
 61 -207 l 2
 51 -217 37 -227 24 -227 c 0xb7
 11 -227 2 -221 -6 -213 c 2
 -17 -201 l 2
 -22 -196 -26 -191 -31 -186 c 0
 -37 -181 -46 -177 -56 -177 c 0x67
 -61 -177 -66 -178 -71 -181 c 0
 -72 -183 -73 -184 -73 -184 c 1
 -116 -227 l 1xa7
127 359 m 1
 127 16 l 2
 127 16 224 -88 279 -173 c 0xa7
 282 -172 287 -170 292 -167 c 0
 293 -166 l 1
 293 83 l 1
 184 173 l 1
 173 184 l 1
 293 344 l 1
 269 369 l 1
 252 351 l 2
 243 342 226 333 198 333 c 0
 177 333 147 347 127 359 c 1
EndSplineSet
EndChar
StartChar: dotlessi
Encoding: 305 305 97
Width: 160
Flags: W
HStem: 407 20G<66 96> 407 20G<66 96>
VStem: 53 54<28 372>
AnchorPoint: "blwmark" 80 0 basechar 0
AnchorPoint: "abvmark" 80 500 basechar 0
LayerCount: 2
Back
SplineSet
70 20 m 25
 90 0 l 25
 110 20 l 1049
90 380 m 25
 70 400 l 25
 50 380 l 1049
80 390 m 9
 80 10 l 1025
EndSplineSet
Fore
SplineSet
107 406 m 1xa0
 117 396 l 1
 107 386 l 1
 107 28 l 1
 126 47 l 1
 137 36 l 1
 74 -27 l 1
 64 -17 l 1
 53 -6 l 1
 43 4 l 1
 53 14 l 1
 53 372 l 1
 34 353 l 1
 23 364 l 1
 86 427 l 1
 96 417 l 1
 107 406 l 1xa0
EndSplineSet
EndChar
StartChar: Eng
Encoding: 330 330 599
Width: 560
Flags: W
HStem: -177 54<86.0508 314.793> -27 21G<13 44.5 193 224> 23 54<78.473 151.321> 523 21G<13 44> 573 54<77.8262 132.32> 573 36<79 114.391>
VStem: 152 16<76 549> 233 54<56 544> 433 54<-104 457>
AnchorPoint: "abvmark" 320 700 basechar 0
LayerCount: 2
Back
SplineSet
40 550 m 1
 40 550 67 600 99 600 c 3
 128 600 142 575 160 575 c 3
 182 575 200 600 201 600 c 1025
160 550 m 1
 160 75 l 1025
40 0 m 17
 40 0 65 50 120 50 c 3
 198 50 220 0 220 0 c 1
 260 40 l 1
 260 560 l 1
 300 600 l 1
 460 475 l 1
 460 -120 l 1
 380 -200 l 1
 380 -200 330 -150 200 -150 c 3
 53 -150 40 -200 40 -200 c 1033
EndSplineSet
Fore
SplineSet
24 -27 m 1xfb80
 13 -16 l 1
 13 -16 19 -4 31 8 c 2
 73 50 l 2
 74 51 l 0
 87 64 108 77 136 77 c 0
 142 77 147 77 152 76 c 1
 152 549 l 2
 150 548 147 548 144 548 c 0
 126 548 112 573 83 573 c 0xfb80
 78 573 75 572 70 570 c 0
 69 568 67 566 67 566 c 1
 24 523 l 1
 13 534 l 1
 13 534 23 552 37 566 c 2
 79 609 l 2
 80 609 l 0xf780
 90 619 102 627 115 627 c 0
 144 627 158 602 176 602 c 0
 187 602 197 608 204 614 c 2
 216 626 l 2
 217 627 l 2xfb80
 228 616 l 1
 226 614 l 2
 225 613 223 611 221 609 c 2xf780
 221 608 l 2
 178 566 l 2
 175 563 172 560 168 557 c 1
 168 74 l 1
 194 68 212 56 222 46 c 2
 233 34 l 1
 233 544 l 1
 316 627 l 1
 476 502 l 1
 487 491 l 1
 487 -104 l 1
 364 -227 l 1
 364 -227 314 -177 184 -177 c 0
 111 -177 71 -190 50 -202 c 1
 24 -227 l 1
 13 -216 l 1
 13 -216 15 -210 22 -203 c 2
 64 -160 l 2
 79 -145 118 -123 216 -123 c 0
 346 -123 396 -173 396 -173 c 1
 433 -136 l 1
 433 457 l 1
 287 571 l 1
 287 56 l 1
 204 -27 l 1
 193 -16 l 2
 193 -16 190 -11 184 -3 c 0
 169 9 144 23 104 23 c 0
 88 23 77 19 65 13 c 2
 24 -27 l 1xfb80
EndSplineSet
EndChar
StartChar: oe
Encoding: 339 339 115
Width: 440
Flags: W
HStem: 407 20G<156 196 316 356> 407 20G<156 196 316 356>
VStem: 53 54<96 304> 213 54<96 136 158 304>
AnchorPoint: "blwmark" 240 0 basechar 0
AnchorPoint: "abvmark" 240 500 basechar 0
LayerCount: 2
Back
SplineSet
400 80 m 9
 320 0 l 25
 240 80 l 25
 240 320 l 25
 320 400 l 25
 400 320 l 1
 400 280 l 1
 240 120 l 1025
240 80 m 9
 160 0 l 1
 80 80 l 25
 80 320 l 25
 160 400 l 25
 240 320 l 1041
EndSplineSet
Fore
SplineSet
267 158 m 1x30
 373 264 l 1
 373 304 l 1
 304 373 l 1
 267 336 l 1
 267 158 l 1x30
256 347 m 1
 336 427 l 1
 427 336 l 1
 427 296 l 1
 267 136 l 1
 267 96 l 1
 336 27 l 1
 416 107 l 1
 427 96 l 1
 304 -27 l 1
 224 53 l 1
 144 -27 l 1
 53 64 l 1
 53 304 l 1
 176 427 l 1xb0
 256 347 l 1
213 304 m 1
 144 373 l 1
 107 336 l 1
 107 96 l 1
 176 27 l 1
 213 64 l 1
 213 304 l 1
EndSplineSet
EndChar
StartChar: wynn
Encoding: 447 447 877
Width: 320
Flags: W
HStem: -177 21G<53 84> 407 20G<66 96 156 196> 407 20G<66 96 156 196>
VStem: 53 54<-134 -48 -26 6 28 336 358 374> 213 54<166 336>
AnchorPoint: "abvmark" 160 500 basechar 0
LayerCount: 2
Back
SplineSet
40 -50 m 9
 240 150 l 1
 240 320 l 25
 160 400 l 1
 80 320 l 1049
70 400 m 25
 90 380 l 1049
80 390 m 1
 80 -150 l 1025
EndSplineSet
Fore
SplineSet
43 384 m 1xd8
 86 427 l 1
 96 417 l 1
 107 406 l 1
 117 396 l 1
 107 386 l 1
 107 358 l 1
 176 427 l 1
 267 336 l 1
 267 166 l 1
 107 6 l 1
 107 -134 l 1
 64 -177 l 1
 53 -166 l 1
 53 -48 l 1
 24 -77 l 1
 13 -66 l 1
 53 -26 l 1
 53 304 l 1
 53 374 l 1
 43 384 l 1xd8
107 336 m 1
 107 28 l 1
 213 134 l 1
 213 304 l 2
 213 342 164 353 144 373 c 1
 107 336 l 1
EndSplineSet
EndChar
StartChar: Rsmallcap
Encoding: 640 640 854
Width: 360
Flags: W
HStem: 407 20G<66 96 156 200> 407 20G<66 96 156 200>
VStem: 53 54<26 336 358 374>
AnchorPoint: "blwmark" 180 0 basechar 0
AnchorPoint: "abvmark" 160 500 basechar 0
LayerCount: 2
Back
SplineSet
70 20 m 25
 90 0 l 1049
70 400 m 25
 90 380 l 1049
80 390 m 9
 80 10 l 1025
320 40 m 25
 280 0 l 1
 280 0 263 79 240 125 c 24
 223 159 180 200 180 200 c 1025
160 180 m 1
 280 300 l 1
 160 400 l 1
 80 320 l 1049
EndSplineSet
Fore
SplineSet
144 153 m 1xa0
 133 164 l 1
 153 184 l 1
 196 227 l 1
 252 283 l 1
 144 373 l 2
 144 373 111 340 107 336 c 2
 107 26 l 1
 117 16 l 1
 74 -27 l 1
 64 -17 l 1
 53 -6 l 1
 43 4 l 1
 53 14 l 1
 53 304 l 1
 53 374 l 1
 43 384 l 1
 86 427 l 1
 96 417 l 1
 107 406 l 1
 117 396 l 1
 107 386 l 1
 107 358 l 1
 176 427 l 1
 296 327 l 1
 307 316 l 1
 207 216 l 1
 211 211 l 2
 222 200 253 168 267 141 c 0
 283 109 296 61 303 34 c 1
 336 67 l 1
 347 56 l 1
 264 -27 l 1
 253 -16 l 1
 253 -16 236 63 213 109 c 0
 202 132 178 159 164 173 c 1
 144 153 l 1xa0
EndSplineSet
EndChar
StartChar: tridotright
Encoding: 4347 4347 895
Width: 400
Flags: W
VStem: 83 274
LayerCount: 2
Back
SplineSet
310 185 m 25
 330 165 l 1049
110 350 m 25
 130 330 l 1049
110 20 m 25
 130 0 l 1049
EndSplineSet
Fore
SplineSet
83 4 m 1
 126 47 l 1
 157 16 l 1
 114 -27 l 1
 83 4 l 1
83 334 m 1
 126 377 l 1
 157 346 l 1
 114 303 l 1
 83 334 l 1
283 169 m 1
 326 212 l 1
 357 181 l 1
 314 138 l 1
 283 169 l 1
EndSplineSet
EndChar
StartChar: figuredash
Encoding: 8210 8210 908
Width: 320
Flags: W
HStem: 173 54<96 224>
VStem: 53 214
LayerCount: 2
Back
SplineSet
80 200 m 25
 240 200 l 1049
EndSplineSet
Fore
SplineSet
53 184 m 1
 96 227 l 1
 256 227 l 1
 267 216 l 1
 224 173 l 1
 64 173 l 1
 53 184 l 1
EndSplineSet
EndChar
StartChar: dagger
Encoding: 8224 8224 262
Width: 320
Flags: W
HStem: -177 21G<133 164> 407 20G<36 76 195 276> 407 20G<36 76 195 276> 607 20G<176 207>
VStem: 125 70<134.492 349 412 543.937> 133 54<-134 338.907>
LayerCount: 2
Back
SplineSet
40 400 m 25
 80 360 l 25
 240 400 l 25
 280 360 l 1049
140 560 m 1
 140 560 150 463 152 400 c 24
 158 186 160 -150 160 -150 c 1
 160 -150 162 186 168 400 c 24
 170 478 180 600 180 600 c 9
 140 560 l 1
EndSplineSet
Fore
SplineSet
113 544 m 1xd8
 196 627 l 1
 207 616 l 1
 207 616 197 494 195 416 c 0
 195 415 195 413 195 412 c 2xd8
 256 427 l 1
 307 376 l 1
 264 333 l 1
 224 373 l 1
 194 365 l 1
 189 153 187 -134 187 -134 c 2
 144 -177 l 1
 133 -166 l 1xd4
 133 -166 131 135 126 349 c 1
 64 333 l 1
 13 384 l 1
 56 427 l 1
 96 387 l 1
 125 394 l 1
 122 457 113 544 113 544 c 1xd8
EndSplineSet
EndChar
StartChar: fraction
Encoding: 8260 8260 217
Width: 560
Flags: W
LayerCount: 2
Back
SplineSet
80 0 m 25
 480 700 l 1049
EndSplineSet
Fore
SplineSet
64 -27 m 1
 53 -16 l 1
 453 684 l 1
 496 727 l 1
 507 716 l 1
 107 16 l 1
 64 -27 l 1
EndSplineSet
EndChar
StartChar: bracketquillright
Encoding: 8262 8262 917
Width: 240
Flags: W
HStem: -177 54<56 133> 273 54<56 133> 673 54<56 133>
VStem: 133 54<-123 273 327 673>
LayerCount: 2
Back
SplineSet
40 300 m 25
 160 300 l 1049
40 700 m 25
 160 700 l 25
 160 -150 l 25
 40 -150 l 1033
EndSplineSet
Fore
SplineSet
13 684 m 1
 56 727 l 1
 176 727 l 1
 187 716 l 1
 187 316 l 1
 187 -134 l 1
 144 -177 l 1
 24 -177 l 1
 13 -166 l 1
 56 -123 l 1
 133 -123 l 1
 133 273 l 1
 24 273 l 1
 13 284 l 1
 56 327 l 1
 133 327 l 1
 133 673 l 1
 24 673 l 1
 13 684 l 1
EndSplineSet
EndChar
StartChar: lozengedot
Encoding: 8280 8280 899
Width: 480
Flags: W
VStem: 83 314
LayerCount: 2
Back
SplineSet
350 185 m 25
 370 165 l 1049
230 20 m 25
 250 0 l 1049
230 350 m 25
 250 330 l 1049
110 185 m 25
 130 165 l 1049
EndSplineSet
Fore
SplineSet
83 169 m 1
 126 212 l 1
 157 181 l 1
 114 138 l 1
 83 169 l 1
203 334 m 1
 246 377 l 1
 277 346 l 1
 234 303 l 1
 203 334 l 1
203 4 m 1
 246 47 l 1
 277 16 l 1
 234 -27 l 1
 203 4 l 1
323 169 m 1
 366 212 l 1
 397 181 l 1
 354 138 l 1
 323 169 l 1
EndSplineSet
EndChar
StartChar: therefore
Encoding: 8756 8756 896
Width: 480
Flags: W
VStem: 83 314
LayerCount: 2
Back
SplineSet
350 20 m 25
 370 0 l 1049
230 350 m 25
 250 330 l 1049
110 20 m 25
 130 0 l 1049
EndSplineSet
Fore
SplineSet
83 4 m 1
 126 47 l 1
 157 16 l 1
 114 -27 l 1
 83 4 l 1
203 334 m 1
 246 377 l 1
 277 346 l 1
 234 303 l 1
 203 334 l 1
323 4 m 1
 366 47 l 1
 397 16 l 1
 354 -27 l 1
 323 4 l 1
EndSplineSet
EndChar
StartChar: proportion
Encoding: 8759 8759 898
Width: 480
Flags: W
VStem: 83 314
LayerCount: 2
Back
SplineSet
350 350 m 25
 370 330 l 1049
350 20 m 25
 370 0 l 1049
110 350 m 25
 130 330 l 1049
110 20 m 25
 130 0 l 1049
EndSplineSet
Fore
SplineSet
83 4 m 1
 126 47 l 1
 157 16 l 1
 114 -27 l 1
 83 4 l 1
83 334 m 1
 126 377 l 1
 157 346 l 1
 114 303 l 1
 83 334 l 1
323 4 m 1
 366 47 l 1
 397 16 l 1
 354 -27 l 1
 323 4 l 1
323 334 m 1
 366 377 l 1
 397 346 l 1
 354 303 l 1
 323 334 l 1
EndSplineSet
EndChar
StartChar: llslst
Encoding: 11805 11805 905
Width: 240
Flags: W
HStem: -177 304
VStem: 13 214
LayerCount: 2
Back
SplineSet
40 -150 m 25
 200 100 l 1049
EndSplineSet
Fore
SplineSet
24 -177 m 1
 13 -166 l 1
 173 84 l 1
 216 127 l 1
 227 116 l 1
 67 -134 l 1
 24 -177 l 1
EndSplineSet
EndChar
StartChar: bracketbottomleft
Encoding: 11812 11812 924
Width: 240
Flags: W
HStem: -177 54<107 184>
VStem: 53 54<-123 284>
LayerCount: 2
Back
SplineSet
80 300 m 1
 80 -150 l 9
 200 -150 l 1033
EndSplineSet
Fore
SplineSet
96 327 m 1
 107 316 l 1
 107 -123 l 1
 216 -123 l 1
 227 -134 l 1
 184 -177 l 1
 64 -177 l 1
 53 -166 l 1
 53 284 l 1
 96 327 l 1
EndSplineSet
EndChar
StartChar: obiit
Encoding: 42827 42827 866
Width: 320
Flags: W
HStem: 198 54<36 53 107 213 267 284> 407 20G<156 196> 407 20G<156 196>
VStem: 53 54<64 198 252 304> 213 54<96 198 252 336>
LayerCount: 2
Back
SplineSet
20 225 m 25
 300 225 l 1049
160 400 m 25
 80 320 l 25
 80 80 l 25
 160 0 l 25
 240 80 l 25
 240 320 l 25
 160 400 l 25
EndSplineSet
Fore
SplineSet
144 373 m 1x98
 107 336 l 1
 107 252 l 1
 213 252 l 1
 213 304 l 2
 213 342 164 353 144 373 c 1x98
53 304 m 1
 176 427 l 1xd8
 267 336 l 1
 267 252 l 1
 316 252 l 1
 327 241 l 1
 284 198 l 1
 267 198 l 1
 267 96 l 1
 144 -27 l 1
 53 64 l 1
 53 198 l 1
 4 198 l 1
 -7 209 l 1
 36 252 l 1
 53 252 l 1
 53 304 l 1
107 198 m 1
 107 96 l 2
 107 58 156 47 176 27 c 1
 213 64 l 1
 213 198 l 1
 107 198 l 1
EndSplineSet
EndChar
StartChar: y_y
Encoding: 42849 42849 834
Width: 480
Flags: W
HStem: -227 54<245.634 362.927> -177 54<77.1172 194.366> 407 20G<66 101 226 256 386 416> 407 20G<66 101 226 256 386 416>
VStem: 53 54<96 374> 213 54<96 374> 373 54<-162.682 42 64 374>
CounterMasks: 1 0e
AnchorPoint: "abvmark" 240 500 basechar 0
LayerCount: 2
Back
SplineSet
250 380 m 25
 230 400 l 1049
410 380 m 25
 390 400 l 1049
40 -200 m 17
 40 -200 70 -150 100 -150 c 8
 196 -150 244 -200 340 -200 c 24
 370 -200 400 -150 400 -150 c 1
 400 390 l 1025
400 80 m 9
 320 0 l 25
 240 80 l 1
 240 390 l 1049
90 380 m 25
 70 400 l 1049
240 80 m 9
 160 0 l 25
 80 80 l 1
 80 390 l 1049
EndSplineSet
Fore
SplineSet
24 -227 m 1x8e
 13 -216 l 1
 13 -216 23 -199 37 -185 c 2
 79 -143 l 2
 89 -133 103 -123 116 -123 c 0x4e
 212 -123 260 -173 356 -173 c 0
 361 -173 367 -171 371 -169 c 0
 372 -167 373 -166 373 -166 c 1
 373 42 l 1
 304 -27 l 1
 224 53 l 1
 144 -27 l 1
 53 64 l 1
 53 374 l 1
 43 384 l 1
 86 427 l 1
 101 411 l 1
 107 406 l 1
 117 396 l 1
 107 386 l 1
 107 96 l 1
 176 27 l 1
 213 64 l 1
 213 374 l 1
 203 384 l 1
 246 427 l 1
 256 417 l 1
 267 406 l 1
 277 396 l 1
 267 386 l 1
 267 96 l 1
 336 27 l 1
 373 64 l 1
 373 374 l 1
 363 384 l 1
 406 427 l 1
 416 417 l 1
 427 406 l 1
 437 396 l 1
 427 386 l 1
 427 96 l 1
 427 -134 l 2
 427 -134 418 -150 404 -164 c 2
 403 -165 l 2
 361 -207 l 2
 351 -217 337 -227 324 -227 c 0xae
 228 -227 180 -177 84 -177 c 0x4e
 79 -177 74 -178 69 -181 c 0
 68 -183 67 -184 67 -184 c 1
 24 -227 l 1x8e
EndSplineSet
LCarets2: 1 240 
Ligature2: "Historic ligatures-1" y y
EndChar
StartChar: thornbarbelow
Encoding: 42855 42855 875
Width: 320
Flags: W
HStem: -177 21G<53 84> -102 54<36 53 107 144> 407 20G<156 196> 407 20G<156 196>
VStem: 53 54<-134 -102 -48 52 125 336 358 599> 213 54<56 304>
AnchorPoint: "abvmark" 160 700 basechar 0
LayerCount: 2
Back
SplineSet
160 -75 m 25
 20 -75 l 1049
80 320 m 25
 160 400 l 1
 240 320 l 1
 240 40 l 1
 200 0 l 1
 200 0 165 100 100 100 c 0
 77 100 40 50 40 50 c 1025
70 625 m 25
 90 605 l 1049
80 615 m 1
 80 -150 l 1025
EndSplineSet
Fore
SplineSet
43 609 m 1xec
 86 652 l 1
 96 642 l 1
 107 631 l 1
 117 621 l 1
 107 611 l 1
 107 358 l 1
 176 427 l 1
 267 336 l 1
 267 56 l 1
 184 -27 l 1
 173 -16 l 1
 173 -16 160 24 134 53 c 0
 126 60 117 65 107 69 c 1
 107 -48 l 1
 176 -48 l 1
 187 -59 l 1
 144 -102 l 1
 107 -102 l 1
 107 -134 l 1
 64 -177 l 1
 53 -166 l 1
 53 -102 l 1
 4 -102 l 1
 -7 -91 l 1
 36 -48 l 1
 53 -48 l 1
 53 52 l 1
 24 23 l 1
 13 34 l 1
 13 34 24 49 37 62 c 2
 53 78 l 1
 53 304 l 1
 53 599 l 1
 43 609 l 1xec
107 336 m 1
 107 125 l 2
 110 126 113 127 116 127 c 0
 137 127 155 116 170 101 c 0
 182 90 l 2
 195 77 205 60 213 46 c 1
 213 304 l 1
 144 373 l 1
 107 336 l 1
EndSplineSet
EndChar
StartChar: longs_l
Encoding: 60323 60323 330
Width: 360
GlyphClass: 3
Flags: W
HStem: -227 54<19.3873 59.8878> -177 54<-62.8828 -20.4265> 598 54<204.576 253>
VStem: 73 54<-159.543 554> 253 54<28 598>
LayerCount: 2
Back
SplineSet
-100 -200 m 17
 -100 -200 -70 -150 -40 -150 c 8
 -16 -150 15 -200 40 -200 c 24
 63 -200 100 -150 100 -150 c 1
 100 570 l 1
 180 650 l 1
 180 650 246 625 270 625 c 9
 290 605 l 1025
270 20 m 25
 290 0 l 25
 310 20 l 1049
280 615 m 9
 280 10 l 1049
EndSplineSet
Fore
SplineSet
296 642 m 1xb8
 307 631 l 1
 317 621 l 1
 307 611 l 1
 307 28 l 1
 326 47 l 1
 337 36 l 1
 274 -27 l 1
 264 -17 l 1
 253 -6 l 1
 243 4 l 1
 253 14 l 1
 253 598 l 1
 228 599 164 623 164 623 c 1
 127 586 l 1
 127 -134 l 1
 127 -134 116 -149 103 -162 c 2
 61 -204 l 2
 49 -216 35 -227 24 -227 c 0xb8
 -1 -227 -32 -177 -56 -177 c 0x78
 -61 -177 -66 -178 -71 -181 c 0
 -72 -183 -73 -184 -73 -184 c 1
 -116 -227 l 1xb8
 -127 -216 l 1
 -127 -216 -117 -199 -103 -185 c 2
 -61 -143 l 2
 -51 -133 -37 -123 -24 -123 c 0x78
 0 -123 31 -173 56 -173 c 0
 61 -173 67 -170 72 -167 c 0
 73 -166 l 1
 73 554 l 1
 196 677 l 1
 196 677 262 652 286 652 c 1
 296 642 l 1xb8
EndSplineSet
LCarets2: 1 240 
Ligature2: "Ligatures-1" longs l
EndChar
StartChar: longs_t_r
Encoding: 60330 60330 713
Width: 560
Flags: W
HStem: -227 54<19.2066 62.9271> -177 54<-62.8828 -19.1811> 373 54<216 233 287 373> 407 20G<476 516>
VStem: 73 54<-162.682 554> 233 54<32.437 373 427 544.875> 373 54<26 62 84 336 358 373>
LayerCount: 2
Back
SplineSet
520 360 m 25
 480 400 l 25
 400 320 l 1049
390 20 m 25
 410 0 l 1049
400 390 m 9
 400 10 l 1025
-100 -200 m 1
 -100 -200 -70 -150 -40 -150 c 8
 -3 -150 3 -200 40 -200 c 24
 70 -200 100 -150 100 -150 c 1
 100 570 l 1
 180 650 l 1
 180 650 225 550 260 550 c 1
 260 40 l 1
 300 0 l 1
 380 80 l 1025
200 400 m 1
 390 400 l 25
 410 380 l 1025
EndSplineSet
Fore
SplineSet
173 384 m 1x2e
 216 427 l 1
 233 427 l 1
 233 526 l 1
 228 528 224 532 219 537 c 0
 218 538 l 2
 207 549 l 2
 188 568 171 600 161 619 c 1
 127 586 l 1
 127 -134 l 2
 127 -134 118 -150 104 -164 c 2
 103 -165 l 2
 61 -207 l 2
 51 -217 37 -227 24 -227 c 0xae
 11 -227 2 -221 -6 -213 c 2
 -17 -201 l 2
 -22 -196 -26 -191 -31 -186 c 0
 -37 -181 -46 -177 -56 -177 c 0x4e
 -61 -177 -66 -178 -71 -181 c 0
 -72 -183 -73 -184 -73 -184 c 1
 -116 -227 l 1x8e
 -127 -216 l 1
 -127 -216 -117 -199 -103 -185 c 2
 -61 -143 l 2
 -51 -133 -37 -123 -24 -123 c 0x4e
 -11 -123 -2 -129 6 -137 c 2
 17 -149 l 2
 22 -154 27 -159 31 -164 c 0
 38 -170 46 -173 56 -173 c 0
 61 -173 67 -171 71 -169 c 0
 72 -167 73 -166 73 -166 c 1
 73 554 l 1
 196 677 l 1
 207 666 l 1
 207 666 230 615 255 586 c 0
 262 580 269 577 276 577 c 1
 287 566 l 1
 287 427 l 1xae
 406 427 l 1
 416 417 l 1
 427 406 l 1
 437 396 l 1
 427 386 l 1
 427 358 l 1
 496 427 l 1x1e
 547 376 l 1
 504 333 l 1
 464 373 l 1
 427 336 l 1
 427 26 l 1
 437 16 l 1
 394 -27 l 1
 384 -17 l 1
 379 -11 l 1
 363 4 l 1
 373 14 l 1
 373 62 l 1
 284 -27 l 1
 233 24 l 1
 233 373 l 1
 184 373 l 1
 173 384 l 1x2e
287 373 m 1
 287 56 l 2
 287 41 308 35 316 27 c 1
 373 84 l 1
 373 304 l 1
 373 373 l 1
 287 373 l 1
EndSplineSet
LCarets2: 2 240 400 
Ligature2: "Ligatures-1" longs t r
EndChar
StartChar: b_b
Encoding: 61122 61122 349
Width: 480
GlyphClass: 3
Flags: W
HStem: 407 20G<156 195.474 316 356> 407 20G<156 195.474 316 356>
VStem: 53 54<64 336 358 599> 213 54<64 336 389 599> 373 54<96 336>
CounterMasks: 1 38
LayerCount: 2
Back
SplineSet
230 625 m 25
 250 605 l 1049
240 615 m 9
 240 80 l 25
 320 0 l 25
 400 80 l 25
 400 320 l 25
 320 400 l 1
 240 320 l 1049
70 625 m 25
 90 605 l 1049
80 615 m 9
 80 80 l 25
 160 0 l 25
 240 80 l 25
 240 320 l 25
 160 400 l 1
 80 320 l 1049
EndSplineSet
Fore
SplineSet
107 336 m 1x38
 107 96 l 2
 107 58 156 47 176 27 c 1
 213 64 l 1
 213 304 l 2
 213 342 164 353 144 373 c 1
 107 336 l 1x38
107 358 m 1
 176 427 l 1
 213 389 l 1
 213 599 l 1
 203 609 l 1
 246 652 l 1
 256 642 l 1
 267 631 l 1
 277 621 l 1
 267 611 l 1
 267 358 l 1
 336 427 l 1xb8
 427 336 l 1
 427 96 l 1
 304 -27 l 1
 224 53 l 1
 144 -27 l 1
 53 64 l 1
 53 599 l 1
 43 609 l 1
 86 652 l 1
 96 642 l 1
 107 631 l 1
 117 621 l 1
 107 611 l 1
 107 358 l 1
267 336 m 1
 267 96 l 2
 267 58 316 47 336 27 c 1
 373 64 l 1
 373 304 l 2
 373 342 324 353 304 373 c 1
 267 336 l 1
EndSplineSet
LCarets2: 1 240 
Ligature2: "Historic ligatures-1" b b
EndChar
StartChar: b_g
Encoding: 61123 61123 350
Width: 320
GlyphClass: 3
Flags: W
HStem: -227 54<159.207 202.927> -177 54<77.1172 120.819> 407 20G<156 196> 407 20G<156 196>
VStem: 53 54<64 336 358 599> 213 54<-162.682 42 64 336>
LayerCount: 2
Back
SplineSet
80 615 m 9
 80 80 l 25
 160 0 l 1
 240 80 l 25
 240 320 l 1
 160 400 l 1
 80 320 l 1049
40 -200 m 17
 40 -200 70 -150 100 -150 c 8
 137 -150 143 -200 180 -200 c 24
 210 -200 240 -150 240 -150 c 1
 240 80 l 1033
70 625 m 25
 90 605 l 1049
EndSplineSet
Fore
SplineSet
43 609 m 1x8c
 86 652 l 1
 96 642 l 1
 107 631 l 1
 117 621 l 1
 107 611 l 1
 107 358 l 1
 176 427 l 1
 267 336 l 1
 267 96 l 1
 267 -134 l 2
 267 -134 258 -150 244 -164 c 2
 243 -165 l 2
 201 -207 l 2
 191 -217 177 -227 164 -227 c 0xac
 151 -227 142 -221 134 -213 c 2
 123 -201 l 2
 118 -196 114 -191 109 -186 c 0
 103 -181 94 -177 84 -177 c 0x4c
 79 -177 74 -178 69 -181 c 0
 68 -183 67 -184 67 -184 c 1
 24 -227 l 1x8c
 13 -216 l 1
 13 -216 23 -199 37 -185 c 2
 79 -143 l 2
 89 -133 103 -123 116 -123 c 0x4c
 129 -123 138 -129 146 -137 c 2
 157 -149 l 2
 162 -154 167 -159 171 -164 c 0
 178 -170 186 -173 196 -173 c 0
 201 -173 207 -171 211 -169 c 0
 212 -167 213 -166 213 -166 c 1
 213 42 l 1
 144 -27 l 1
 53 64 l 1
 53 599 l 1
 43 609 l 1x8c
107 336 m 1
 107 96 l 2
 107 58 156 47 176 27 c 1
 213 64 l 1
 213 304 l 2
 213 342 164 353 144 373 c 1
 107 336 l 1
EndSplineSet
LCarets2: 1 160 
Ligature2: "Historic ligatures-1" b g
EndChar
StartChar: f_y
Encoding: 61133 61133 353
Width: 520
GlyphClass: 3
Flags: W
HStem: -227 54<19.2066 62.9271 359.387 399.888> -177 54<-62.8828 -19.1811 277.117 319.574> 373 54<56 73 127 253> 407 20G<426 466> 583 54<212.127 267.076>
VStem: 73 54<-162.682 373 427 554> 253 54<96 373> 413 54<-159.543 42 64 374>
LayerCount: 2
Back
SplineSet
450 380 m 25
 430 400 l 1049
240 -200 m 17
 240 -200 270 -150 300 -150 c 8
 324 -150 355 -200 380 -200 c 24
 403 -200 440 -150 440 -150 c 1
 440 390 l 1025
440 80 m 9
 360 0 l 25
 280 80 l 1
 280 390 l 1049
-100 -200 m 17
 -100 -200 -70 -150 -40 -150 c 8
 -3 -150 3 -200 40 -200 c 24
 70 -200 100 -150 100 -150 c 1
 100 570 l 1
 180 650 l 17
 180 650 212 610 240 610 c 24
 268 610 300 650 301 650 c 1033
40 400 m 1
 270 400 l 25
 290 380 l 1025
EndSplineSet
Fore
SplineSet
13 384 m 1xaf
 56 427 l 1
 73 427 l 1
 73 554 l 1
 196 677 l 1
 207 666 l 1
 207 666 209 663 212 659 c 0
 224 648 241 637 256 637 c 0
 271 637 286 649 298 659 c 2
 316 676 l 2
 316 677 l 0
 317 677 l 2
 328 666 l 1
 326 663 l 2
 324 661 321 658 318 655 c 2
 276 613 l 2
 264 601 243 583 224 583 c 0
 206 583 188 599 176 611 c 0
 164 623 l 1
 127 586 l 1
 127 427 l 1xaf
 286 427 l 1
 296 417 l 1
 317 396 l 1
 307 386 l 1
 307 96 l 1
 376 27 l 1
 413 64 l 1
 413 374 l 1
 403 384 l 1
 446 427 l 1
 477 396 l 1
 467 386 l 1
 467 96 l 1
 467 -134 l 1
 467 -134 456 -149 443 -162 c 2
 401 -204 l 2
 389 -216 375 -227 364 -227 c 0x9f
 339 -227 308 -177 284 -177 c 0x4f
 279 -177 274 -178 269 -181 c 0
 268 -183 267 -184 267 -184 c 1
 224 -227 l 1x8f
 213 -216 l 1
 213 -216 223 -199 237 -185 c 2
 279 -143 l 2
 289 -133 303 -123 316 -123 c 0x4f
 340 -123 371 -173 396 -173 c 0
 401 -173 407 -170 412 -167 c 0
 413 -166 l 1
 413 42 l 1
 344 -27 l 1
 253 64 l 1
 253 373 l 1
 127 373 l 1
 127 -134 l 2
 127 -134 118 -150 104 -164 c 2
 103 -165 l 2
 61 -207 l 2
 51 -217 37 -227 24 -227 c 0xaf
 11 -227 2 -221 -6 -213 c 2
 -17 -201 l 2
 -22 -196 -26 -191 -31 -186 c 0
 -37 -181 -46 -177 -56 -177 c 0x4f
 -61 -177 -66 -178 -71 -181 c 0
 -72 -183 -73 -184 -73 -184 c 1
 -116 -227 l 1x8f
 -127 -216 l 1
 -127 -216 -117 -199 -103 -185 c 2
 -61 -143 l 2
 -51 -133 -37 -123 -24 -123 c 0x4f
 -11 -123 -2 -129 6 -137 c 2
 17 -149 l 2
 22 -154 27 -159 31 -164 c 0
 38 -170 46 -173 56 -173 c 0
 61 -173 67 -171 71 -169 c 0
 72 -167 73 -166 73 -166 c 1
 73 373 l 1
 24 373 l 1
 13 384 l 1xaf
EndSplineSet
LCarets2: 1 240 
Ligature2: "Ligatures-1" f y
EndChar
StartChar: f_f_y
Encoding: 61135 61135 355
Width: 680
GlyphClass: 3
Flags: W
HStem: -227 54<19.2066 62.849 169.997 219.816 519.387 559.888> -177 54<-62.8828 -19.1811 437.117 479.574> 373 54<56 73 127 233 287 413> 407 20G<586 616> 583 54<372.127 427.076>
VStem: 73 54<-137.562 373 427 554> 233 54<-158.782 373 427 561.053> 413 54<96 373> 573 54<-159.543 42 64 374>
LayerCount: 2
Back
SplineSet
610 380 m 25
 590 400 l 1049
400 -200 m 17
 400 -200 430 -150 460 -150 c 8
 484 -150 515 -200 540 -200 c 24
 563 -200 600 -150 600 -150 c 1
 600 390 l 1025
600 80 m 9
 520 0 l 25
 440 80 l 1
 440 390 l 1049
100 -150 m 1
 125 -150 174 -200 200 -200 c 0
 222 -200 260 -150 260 -150 c 1
 260 570 l 1
 340 650 l 17
 340 650 372 610 400 610 c 24
 428 610 460 650 461 650 c 1025
-100 -200 m 1
 -100 -200 -70 -150 -40 -150 c 8
 -3 -150 3 -200 40 -200 c 24
 70 -200 100 -150 100 -150 c 1
 100 570 l 1
 180 650 l 1
 180 650 225 570 260 570 c 1025
40 400 m 1
 430 400 l 25
 450 380 l 1025
EndSplineSet
Fore
SplineSet
13 384 m 1xaf80
 56 427 l 1
 73 427 l 1
 73 554 l 1
 196 677 l 1
 207 666 l 1
 207 666 224 635 245 612 c 0
 255 603 266 597 276 597 c 1
 356 677 l 1
 367 666 l 1
 367 666 369 663 372 659 c 0
 384 648 401 637 416 637 c 0
 431 637 446 649 458 659 c 2
 476 676 l 2
 476 677 l 0
 477 677 l 2
 488 666 l 1
 486 663 l 2
 484 661 481 658 478 655 c 2
 436 613 l 2
 424 601 403 583 384 583 c 0
 366 583 348 599 336 611 c 0
 324 623 l 1
 287 586 l 1
 287 427 l 1xaf80
 446 427 l 1
 456 417 l 1
 477 396 l 1
 467 386 l 1
 467 96 l 1
 536 27 l 1
 573 64 l 1
 573 374 l 1
 563 384 l 1
 606 427 l 1
 616 417 l 1
 637 396 l 1
 627 386 l 1
 627 96 l 1
 627 -134 l 1
 627 -134 616 -149 603 -162 c 2
 561 -204 l 2
 549 -216 535 -227 524 -227 c 0x9f80
 499 -227 468 -177 444 -177 c 0x4f80
 439 -177 434 -178 429 -181 c 0
 428 -183 427 -184 427 -184 c 1
 384 -227 l 1x8f80
 373 -216 l 1
 373 -216 383 -199 397 -185 c 2
 439 -143 l 2
 449 -133 463 -123 476 -123 c 0x4f80
 500 -123 531 -173 556 -173 c 0
 561 -173 567 -170 572 -167 c 0
 573 -166 l 1
 573 42 l 1
 504 -27 l 1
 413 64 l 1
 413 373 l 1
 287 373 l 1
 287 -134 l 2
 287 -134 277 -147 264 -160 c 2
 263 -161 l 2
 221 -204 l 2
 209 -216 194 -227 184 -227 c 0
 160 -227 116 -184 90 -178 c 1
 61 -207 l 2
 51 -217 37 -227 24 -227 c 0xaf80
 11 -227 2 -221 -6 -213 c 2
 -17 -201 l 2
 -22 -196 -26 -191 -31 -186 c 0
 -37 -181 -46 -177 -56 -177 c 0x4f80
 -61 -177 -66 -178 -71 -181 c 0
 -72 -183 -73 -184 -73 -184 c 1
 -116 -227 l 1x8f80
 -127 -216 l 1
 -127 -216 -117 -199 -103 -185 c 2
 -61 -143 l 2
 -51 -133 -37 -123 -24 -123 c 0x4f80
 -11 -123 -2 -129 6 -137 c 2
 17 -149 l 2
 22 -154 27 -159 31 -164 c 0
 38 -170 46 -173 56 -173 c 0
 61 -173 67 -171 71 -169 c 0
 72 -167 73 -166 73 -166 c 1
 73 373 l 1
 24 373 l 1
 13 384 l 1xaf80
127 427 m 1
 233 427 l 1
 233 546 l 1
 225 549 216 556 208 564 c 2
 197 575 l 2
 183 589 170 607 162 620 c 1
 127 586 l 1
 127 427 l 1
127 373 m 1
 127 -126 l 1
 153 -136 194 -173 216 -173 c 0
 221 -173 226 -171 232 -167 c 0
 232 -166 233 -166 233 -166 c 1
 233 373 l 1
 127 373 l 1
EndSplineSet
LCarets2: 2 240 400 
Ligature2: "Ligatures-1" f f y
EndChar
StartChar: g_eth
Encoding: 61140 61140 499
Width: 320
Flags: W
HStem: -227 54<159.207 202.927> -177 54<77.1172 120.819> 407 20G<156 187> 407 20G<156 187> 523 54<144 176>
VStem: 53 54<64 304 578 620.802> 213 54<-162.682 42 64 358 395 497.64>
LayerCount: 2
Back
SplineSet
250 640 m 1
 60 450 l 1025
240 400 m 1
 240 450 l 2
 240 505 195 550 160 550 c 0
 125 550 80 563 80 600 c 27
 80 623 100 630 113 650 c 1049
40 -200 m 17
 40 -200 70 -150 100 -150 c 8
 137 -150 143 -200 180 -200 c 24
 210 -200 240 -150 240 -150 c 9
 240 400 l 1
 240 400 220 368 200 368 c 24
 180 368 160 400 160 400 c 1
 80 320 l 25
 80 80 l 25
 160 0 l 25
 240 80 l 1041
EndSplineSet
Fore
SplineSet
213 358 m 1x0e
 210 355 l 2
 209 354 l 0
 201 347 193 341 184 341 c 0
 175 341 166 348 159 355 c 2
 148 366 l 1
 147 367 l 0
 145 369 144 371 143 372 c 2
 107 336 l 1
 107 96 l 2
 107 58 156 47 176 27 c 1
 213 64 l 1
 213 358 l 1x0e
213 42 m 1
 144 -27 l 1
 53 64 l 1
 53 304 l 1
 176 427 l 1
 187 416 l 1
 187 416 191 410 196 404 c 0
 201 400 207 396 213 395 c 1
 213 434 l 2
 213 461 201 487 186 505 c 0
 173 516 157 523 144 523 c 1
 44 423 l 1
 33 434 l 1
 123 525 l 1
 105 528 87 534 76 545 c 2
 65 556 l 2
 58 563 53 572 53 584 c 0
 53 598 61 607 69 615 c 2
 75 621 l 2
 79 625 83 629 86 634 c 2
 129 677 l 1
 140 666 l 1
 136 660 131 654 127 650 c 2
 120 643 l 2
 113 636 107 629 107 616 c 0
 107 607 110 599 114 593 c 0
 130 581 155 577 176 577 c 2
 266 667 l 1
 277 656 l 1
 194 573 l 1
 204 569 214 563 223 554 c 2
 223 553 l 2
 235 542 l 2
 253 524 267 497 267 466 c 2
 267 416 l 1
 267 -134 l 2
 267 -134 258 -150 244 -164 c 2
 243 -165 l 2
 201 -207 l 2
 191 -217 177 -227 164 -227 c 0xae
 151 -227 142 -221 134 -213 c 2
 123 -201 l 2
 118 -196 114 -191 109 -186 c 0
 103 -181 94 -177 84 -177 c 0x4e
 79 -177 74 -178 69 -181 c 0
 68 -183 67 -184 67 -184 c 1
 24 -227 l 1x8e
 13 -216 l 1
 13 -216 23 -199 37 -185 c 2
 79 -143 l 2
 89 -133 103 -123 116 -123 c 0x4e
 129 -123 138 -129 146 -137 c 2
 157 -149 l 2
 162 -154 167 -159 171 -164 c 0
 178 -170 186 -173 196 -173 c 0x8e
 201 -173 207 -171 211 -169 c 0
 212 -167 213 -166 213 -166 c 1
 213 42 l 1
EndSplineSet
LCarets2: 1 160 
Ligature2: "Historic ligatures-1" g eth
EndChar
StartChar: t_t
Encoding: 61145 61145 730
Width: 419
Flags: W
HStem: 373 54<56 73 127 233 287 344> 557 20G<96 127 256 287>
VStem: 73 54<32.437 373 427 534> 233 54<32.437 82 104 373 427 534>
LayerCount: 2
Back
SplineSet
260 550 m 1
 260 40 l 1
 300 0 l 1
 380 80 l 1025
40 400 m 1
 360 400 l 1041
100 550 m 1
 100 40 l 1
 140 0 l 1
 220 80 l 1025
EndSplineSet
Fore
SplineSet
116 577 m 1
 127 566 l 1
 127 427 l 1
 233 427 l 1
 233 534 l 1
 276 577 l 1
 287 566 l 1
 287 427 l 1
 376 427 l 1
 387 416 l 1
 344 373 l 1
 287 373 l 1
 287 56 l 2
 287 41 308 35 316 27 c 1
 396 107 l 1
 407 96 l 1
 284 -27 l 1
 233 24 l 1
 233 82 l 1
 124 -27 l 1
 73 24 l 1
 73 373 l 1
 24 373 l 1
 13 384 l 1
 56 427 l 1
 73 427 l 1
 73 534 l 1
 116 577 l 1
127 373 m 1
 127 56 l 2
 127 41 148 35 156 27 c 1
 233 104 l 1
 233 373 l 1
 127 373 l 1
EndSplineSet
LCarets2: 1 240 
Ligature2: "Ligatures-1" t t
EndChar
StartChar: t_z
Encoding: 61148 61148 732
Width: 440
Flags: W
HStem: -227 54<282.588 319.857> -177 54<197.073 244.656> 323 54<127.894 270.23> 407 20G<36 67 319 356> 427 130G<36 67 96 127 319 356>
VStem: 73 54<32.437 326 408 534> 333 54<-158.554 83>
LayerCount: 2
Back
SplineSet
40 400 m 1
 40 400 61 350 200 350 c 0
 285 350 320 400 320 400 c 1
 360 360 l 1
 240 200 l 1
 360 100 l 1
 360 -150 l 1
 360 -150 322 -200 300 -200 c 0
 274 -200 257 -150 220 -150 c 16
 190 -150 160 -200 160 -200 c 1033
100 550 m 1
 100 40 l 1
 140 0 l 1
 220 80 l 1025
EndSplineSet
Fore
SplineSet
116 577 m 1xb6
 127 566 l 1
 127 386 l 1
 149 381 178 377 216 377 c 0
 268 377 301 396 319 410 c 2
 336 427 l 1
 387 376 l 1
 268 217 l 1
 376 127 l 1
 387 116 l 1
 387 -134 l 1
 387 -134 376 -148 363 -161 c 2
 321 -204 l 2
 309 -216 294 -227 284 -227 c 0xb6
 274 -227 267 -220 258 -211 c 2
 247 -200 l 2
 246 -200 l 0
 244 -198 241 -195 240 -194 c 0
 230 -184 219 -177 204 -177 c 0x66
 199 -177 193 -179 189 -181 c 0
 188 -183 187 -184 187 -184 c 1
 144 -227 l 1xa6
 133 -216 l 2
 133 -216 142 -200 156 -186 c 2
 157 -185 l 2
 199 -143 l 2
 209 -133 223 -123 236 -123 c 0x66
 253 -123 265 -133 276 -144 c 0
 276 -145 l 2
 288 -156 l 2
 290 -158 292 -160 294 -162 c 0
 301 -168 308 -173 316 -173 c 0
 321 -173 325 -171 332 -167 c 0
 333 -166 l 1
 333 83 l 1
 224 173 l 1
 213 184 l 1
 333 344 l 1
 305 373 l 1
 297 365 l 2
 283 351 247 323 184 323 c 0
 162 323 143 324 127 326 c 1
 127 56 l 2
 127 41 148 35 156 27 c 1
 236 107 l 1
 247 96 l 1
 124 -27 l 1
 73 24 l 1
 73 339 l 1
 52 347 39 356 32 363 c 2
 21 374 l 2
 15 380 13 384 13 384 c 1
 56 427 l 1
 67 416 l 1
 67 416 68 414 70 411 c 0
 71 410 72 409 73 408 c 2
 73 534 l 1
 116 577 l 1xb6
EndSplineSet
LCarets2: 1 240 
Ligature2: "Ligatures-1" t z
EndChar
StartChar: a_f
Encoding: 61347 61347 337
Width: 379
GlyphClass: 3
Flags: W
HStem: -227 54<159.207 202.927> -177 54<77.1172 120.819> 198 54<159.094 213> 373 54<156 213 267 324> 583 54<352.127 407.076>
VStem: 53 54<76 174> 213 54<-162.682 62 84 198 252 373 427 554>
LayerCount: 2
Back
SplineSet
240 100 m 9
 140 0 l 1
 80 60 l 1
 80 190 l 1
 140 250 l 1
 140 250 155 225 200 225 c 3
 176.991563428 225 240 225 240 225 c 1033
40 -200 m 17
 40 -200 70 -150 100 -150 c 8
 137 -150 143 -200 180 -200 c 24
 210 -200 240 -150 240 -150 c 1
 240 570 l 1
 320 650 l 17
 320 650 352 610 380 610 c 24
 408 610 440 650 441 650 c 1033
340 400 m 1
 140 400 l 17
 80 340 l 1
 100 280 l 1033
EndSplineSet
Fore
SplineSet
367 416 m 1xbe
 324 373 l 1
 267 373 l 1
 267 241 l 1
 267 116 l 1
 267 -134 l 2
 267 -134 258 -150 244 -164 c 2
 243 -165 l 2
 201 -207 l 2
 191 -217 177 -227 164 -227 c 0xbe
 151 -227 142 -221 134 -213 c 2
 123 -201 l 2
 118 -196 114 -191 109 -186 c 0
 103 -181 94 -177 84 -177 c 0x7e
 79 -177 74 -178 69 -181 c 0
 68 -183 67 -184 67 -184 c 1
 24 -227 l 1xbe
 13 -216 l 1
 13 -216 23 -199 37 -185 c 2
 79 -143 l 2
 89 -133 103 -123 116 -123 c 0x7e
 129 -123 138 -129 146 -137 c 2
 157 -149 l 2
 162 -154 167 -159 171 -164 c 0
 178 -170 186 -173 196 -173 c 0
 201 -173 207 -171 211 -169 c 0
 212 -167 213 -166 213 -166 c 1
 213 62 l 1
 124 -27 l 1
 53 44 l 1
 53 174 l 1
 156 277 l 1
 167 266 l 2
 175 260 191 253 213 252 c 1
 213 373 l 1
 124 373 l 2
 124 373 109 358 107 356 c 2
 127 296 l 1
 84 253 l 1
 73 264 l 1
 53 324 l 1
 156 427 l 1
 213 427 l 1
 213 554 l 1
 336 677 l 1
 347 666 l 1
 347 666 349 663 352 659 c 0
 364 648 381 637 396 637 c 0
 411 637 426 649 438 659 c 2
 456 676 l 2
 456 677 l 0
 457 677 l 2
 468 666 l 1
 466 663 l 2
 464 661 461 658 458 655 c 2
 416 613 l 2
 404 601 383 583 364 583 c 0
 346 583 328 599 316 611 c 0
 304 623 l 1
 267 586 l 1
 267 427 l 1
 356 427 l 1
 367 416 l 1xbe
184 198 m 2
 183 198 184 198 183 198 c 2
 184 198 l 2
213 84 m 1
 213 198 l 1
 179 198 l 2
 151 199 136 210 129 217 c 0
 129 218 l 2
 124 223 l 1
 107 206 l 1
 107 76 l 1
 156 27 l 1
 213 84 l 1
EndSplineSet
LCarets2: 1 240 
Ligature2: "Historic ligatures-1" a f
EndChar
StartChar: a_g
Encoding: 61349 61349 338
Width: 480
GlyphClass: 3
Flags: W
HStem: -227 54<319.207 362.927> -177 54<237.117 280.819> 198 54<159.094 213> 341 54<327.547 378> 407 20G<136 236 316 347 395.31 427> 407 20G<136 236 316 347 395.31 427>
VStem: 53 54<76 174> 213 54<84 198 252 336> 373 54<-162.682 42 64 358>
CounterMasks: 1 0380
LayerCount: 2
Back
SplineSet
100 280 m 17
 80 340 l 1
 140 400 l 1
 240 375 l 1
 240 100 l 9
 140 0 l 1
 80 60 l 1
 80 190 l 1
 140 250 l 1
 140 250 155 225 200 225 c 3
 176.991563428 225 240 225 240 225 c 1033
200 -200 m 17
 200 -200 230 -150 260 -150 c 8
 297 -150 303 -200 340 -200 c 24
 370 -200 400 -150 400 -150 c 9
 400 400 l 1
 400 400 380 368 360 368 c 24
 340 368 320 400 320 400 c 1
 240 320 l 25
 240 80 l 25
 320 0 l 25
 400 80 l 1041
EndSplineSet
Fore
SplineSet
373 358 m 1x3380
 370 355 l 2
 369 354 l 0
 361 347 353 341 344 341 c 0
 335 341 326 348 319 355 c 2
 308 366 l 1
 307 367 l 0
 305 369 304 371 303 372 c 2
 267 336 l 1
 267 116 l 1
 267 96 l 2
 267 58 316 47 336 27 c 1
 373 64 l 1
 373 358 l 1x3380
373 42 m 1
 304 -27 l 1
 214 63 l 1
 124 -27 l 1
 53 44 l 1
 53 174 l 1
 156 277 l 1
 167 266 l 2
 176 259 190 253 213 252 c 1
 213 304 l 1
 213 351 l 1
 124 373 l 1
 107 356 l 1
 127 296 l 1
 84 253 l 1
 73 264 l 1
 53 324 l 1
 156 427 l 1
 256 402 l 1
 267 391 l 1
 267 358 l 1
 336 427 l 1
 347 416 l 1
 347 416 351 410 356 404 c 0
 362 399 369 395 376 395 c 0
 380 395 382 396 386 398 c 2
 416 427 l 1
 427 416 l 1
 427 -134 l 2
 427 -134 418 -150 404 -164 c 2
 403 -165 l 2
 361 -207 l 2
 351 -217 337 -227 324 -227 c 0xbb80
 311 -227 302 -221 294 -213 c 2
 283 -201 l 2
 278 -196 274 -191 269 -186 c 0
 263 -181 254 -177 244 -177 c 0x7380
 239 -177 234 -178 229 -181 c 0
 228 -183 227 -184 227 -184 c 1
 184 -227 l 1xb380
 173 -216 l 1
 173 -216 183 -199 197 -185 c 2
 239 -143 l 2
 249 -133 263 -123 276 -123 c 0x7380
 289 -123 298 -129 306 -137 c 2
 317 -149 l 2
 322 -154 327 -159 331 -164 c 0
 338 -170 346 -173 356 -173 c 0xb380
 361 -173 367 -171 371 -169 c 0
 372 -167 373 -166 373 -166 c 1
 373 42 l 1
184 198 m 2
 183 198 184 198 183 198 c 2
 184 198 l 2
213 84 m 1
 213 198 l 1
 179 198 l 2
 151 199 136 210 129 217 c 0
 129 218 l 2
 124 223 l 1
 107 206 l 1
 107 76 l 1
 156 27 l 1
 213 84 l 1
EndSplineSet
LCarets2: 1 240 
Ligature2: "Historic ligatures-1" a g
EndChar
StartChar: a_n
Encoding: 61351 61351 340
Width: 480
GlyphClass: 3
Flags: W
HStem: 198 54<159.094 213> 407 20G<136 236 336 376> 407 20G<136 236 336 376>
VStem: 53 54<76 174> 213 54<26 62 84 198 252 316 338 351> 373 54<26 354.693>
CounterMasks: 1 1c
LayerCount: 2
Back
SplineSet
100 280 m 17
 80 340 l 1
 140 400 l 1
 240 375 l 1
 240 100 l 9
 140 0 l 1
 80 60 l 1
 80 190 l 1
 140 250 l 1
 140 250 155 225 200 225 c 3
 176.991563428 225 240 225 240 225 c 1033
390 20 m 25
 410 0 l 1049
400 10 m 1
 400 340 l 25
 340 400 l 1
 240 300 l 1049
230 20 m 25
 250 0 l 1049
240 10 m 1
 240 375 l 1041
EndSplineSet
Fore
SplineSet
384 -17 m 1xdc
 373 -6 l 1
 363 4 l 1
 373 14 l 1
 373 324 l 2
 373 351 338 359 324 373 c 1
 267 316 l 1
 267 116 l 1
 267 26 l 1
 277 16 l 1
 234 -27 l 1
 224 -17 l 1
 213 -6 l 1
 203 4 l 1
 213 14 l 1
 213 62 l 1
 124 -27 l 1
 53 44 l 1
 53 174 l 1
 156 277 l 1
 167 266 l 2
 176 259 190 253 213 252 c 1
 213 284 l 1
 213 351 l 1
 124 373 l 1
 107 356 l 1
 127 296 l 1
 84 253 l 1
 73 264 l 1
 53 324 l 1
 156 427 l 1
 256 402 l 1
 267 391 l 1
 267 338 l 1
 356 427 l 1
 427 356 l 1
 427 26 l 1
 437 16 l 1
 394 -27 l 1
 384 -17 l 1xdc
184 198 m 2
 183 198 184 198 183 198 c 2
 184 198 l 2
213 84 m 1
 213 198 l 1
 179 198 l 2
 151 199 136 210 129 217 c 0
 129 218 l 2
 124 223 l 1
 107 206 l 1
 107 76 l 1
 156 27 l 1
 213 84 l 1
EndSplineSet
LCarets2: 1 240 
Ligature2: "Historic ligatures-1" a n
EndChar
StartChar: n.alt
Encoding: 61992 61992 598
Width: 320
Flags: W
HStem: 407 20G<66 96 176 216> 407 20G<66 96 176 216>
VStem: 53 54<26 316 338 374> 213 54<-94 354.693>
AnchorPoint: "abvmark" 160 500 basechar 0
LayerCount: 2
Back
SplineSet
70 20 m 25
 90 0 l 1049
90 380 m 25
 70 400 l 1049
80 390 m 9
 80 10 l 1025
220 -130 m 25
 240 -110 l 1
 240 340 l 9
 180 400 l 1
 80 300 l 1049
EndSplineSet
Fore
SplineSet
204 -157 m 1xb0
 193 -146 l 1
 213 -126 l 1
 213 324 l 2
 213 351 178 359 164 373 c 1
 107 316 l 1
 107 26 l 1
 117 16 l 1
 74 -27 l 1
 64 -17 l 1
 53 -6 l 1
 43 4 l 1
 53 14 l 1
 53 284 l 1
 53 374 l 1
 43 384 l 1
 86 427 l 1
 96 417 l 1
 107 406 l 1
 117 396 l 1
 107 386 l 1
 107 338 l 1
 196 427 l 1
 267 356 l 1
 267 -94 l 1
 204 -157 l 1xb0
EndSplineSet
EndChar
StartChar: l_l
Encoding: 62713 62713 575
Width: 320
Flags: W
VStem: 53 54<28 599> 213 54<28 599>
LayerCount: 2
Back
SplineSet
230 20 m 25
 250 0 l 25
 270 20 l 1049
230 625 m 25
 250 605 l 1049
240 615 m 9
 240 10 l 1049
70 20 m 25
 90 0 l 25
 110 20 l 1049
70 625 m 25
 90 605 l 1049
80 615 m 9
 80 10 l 1049
EndSplineSet
Fore
SplineSet
43 609 m 1
 86 652 l 1
 96 642 l 1
 107 631 l 1
 117 621 l 1
 107 611 l 1
 107 28 l 1
 126 47 l 1
 137 36 l 1
 74 -27 l 1
 64 -17 l 1
 53 -6 l 1
 43 4 l 1
 53 14 l 1
 53 599 l 1
 43 609 l 1
256 642 m 1
 267 631 l 1
 277 621 l 1
 267 611 l 1
 267 28 l 1
 286 47 l 1
 297 36 l 1
 234 -27 l 1
 224 -17 l 1
 213 -6 l 1
 203 4 l 1
 213 14 l 1
 213 599 l 1
 203 609 l 1
 246 652 l 1
 256 642 l 1
EndSplineSet
LCarets2: 1 160 
Ligature2: "Ligatures-1" l l
EndChar
StartChar: v.alt
Encoding: 65540 -1 782
Width: 320
Flags: W
HStem: 407 20G<66 96 216 256> 407 20G<66 96 216 256>
VStem: 53 54<96 374> 213 54<96 364>
AnchorPoint: "abvmark" 160 500 basechar 0
AnchorPoint: "blwmark" 160 0 basechar 0
LayerCount: 2
Back
SplineSet
220 400 m 1
 240 380 l 25
 240 80 l 1
 160 0 l 25
 80 80 l 1
 80 390 l 1049
90 380 m 25
 70 400 l 1049
EndSplineSet
Fore
SplineSet
193 384 m 1xb0
 236 427 l 1
 267 396 l 1
 267 96 l 1
 144 -27 l 1
 53 64 l 1
 53 374 l 1
 43 384 l 1
 86 427 l 1
 96 417 l 1
 107 406 l 1
 117 396 l 1
 107 386 l 1
 107 96 l 1
 176 27 l 1
 213 64 l 1
 213 364 l 1
 193 384 l 1xb0
EndSplineSet
EndChar
